<svg id="_レイヤー_2" data-name="レイヤー 2" xmlns="http://www.w3.org/2000/svg" viewBox="0 0 140.56 270.38"><defs><style>.cls-1{fill:#bfcea7;stroke-width:0}</style></defs><g id="cacth_right"><path class="cls-1" d="M86.22 269.87c-2.03 2.05-47.28-1.34-66.51-23.88-25.04-29.34-19.55-69.8-18.4-77.33 10.65-.56 38.07-.4 60.21 19.37 26.5 23.66 29.41 77.09 24.71 81.84ZM140.32 73.96c-1.02-2.03-35.7-10.44-55.54 1.83-25.84 15.97-31.54 47.66-32.51 53.59 7.83 2.99 28.38 9.51 49.73.03 25.55-11.35 40.68-50.74 38.31-55.44ZM28.23.65c-1 .9-.39 21.97 9.69 31.37 13.12 12.24 32.07 10.55 35.6 10.18.49-4.93 1-17.65-7.73-28.35C55.34 1.06 30.54-1.43 28.23.65Z"/></g></svg>