<svg xmlns="http://www.w3.org/2000/svg" id="_レイヤー_2" data-name="レイヤー 2" viewBox="0 0 290.62 395.89"><defs><style>.cls-2,.cls-3{stroke-width:0}.cls-2{fill:#bfcea7}.cls-3{fill:#ff9}</style></defs><g id="cacth_right"><path d="M161.05 278.4c2.33 3.76-13.63 74.77-49.57 99.37C64.68 409.8 10.13 390.41 0 386.6c1.88-17.06 8.93-60.58 41.77-90.54 39.3-35.85 113.88-26.38 119.27-17.66Z" style="stroke-width:0;fill:#789845"/><path d="M119.74 301c-.7 2.32-36.12 18.39-61.07 39.01-3.88 3.2-54.15 47.52-58.67 46.58 8.8-11.45 36.7-36.64 54.83-50.58 26.04-20.02 65.52-37.03 64.91-35.01Z" class="cls-3"/><path d="M95.36 375.55c-.76-2.33-18.91-14.29-32.52-17.82-6.18-1.6-22.71-6.13-25.36-2.78 4.18 1.53 14.08 3.97 27.09 8.15 18.94 6.09 31.12 13.44 30.8 12.45ZM123.07 332.4c-.63-.85-6.56-5.64-21.05-9.34-10.57-2.7-14.76-2.7-18.81-1.22 5.08.4 10.5 2.95 19.15 5.27 14.1 3.78 21.96 6.99 20.71 5.29ZM59.54 333.35c2.3-1.71 3.76-11.9 4.08-16.28.63-8.62-2.03-27.71-3.2-26.92-.27 1.03.29 12.3-.04 18.75-.94 18.5-1.64 25.05-.85 24.45Z" class="cls-3"/><path d="M236.28 269.87c-2.03 2.05-47.28-1.34-66.51-23.88-25.04-29.35-19.55-69.8-18.41-77.34 10.65-.56 38.07-.4 60.21 19.37 26.5 23.66 29.41 77.09 24.71 81.84ZM290.38 73.96c-1.02-2.03-35.7-10.44-55.54 1.83-25.84 15.97-31.54 47.66-32.51 53.59 7.83 2.99 28.38 9.51 49.73.03 25.55-11.35 40.68-50.74 38.31-55.44ZM178.29.65c-1 .9-.39 21.97 9.69 31.37 13.12 12.24 32.07 10.55 35.6 10.18.49-4.93 1-17.65-7.73-28.35C205.4 1.06 180.6-1.43 178.29.65Z" class="cls-2"/></g></svg>