<svg id="_レイヤー_2" data-name="レイヤー 2" xmlns="http://www.w3.org/2000/svg" viewBox="0 0 148.05 195.47"><defs><style>.cls-1{fill:#bfcea7;stroke-width:0}</style></defs><g id="cacth_left"><path class="cls-1" d="M15.02 75.96c-1.46.81-4.16 24.11 7.55 36.24 15.25 15.8 40.49 17.32 45.2 17.53 1.46-5.34 4.25-19.25-5.47-32.57-11.63-15.94-43.89-23.08-47.28-21.21ZM56.38 165.34c-.41-1.27-19.91-9.29-32.59-3.91-16.52 7.01-22.69 25-23.78 28.38 4.3 2.45 15.72 8.1 29.04 4.47 15.94-4.33 28.3-25.98 27.34-28.94ZM75.97 84.97c-1.93-1.42-5.38-39.78 10.2-58.97C106.45 1.02 139.85.07 146.09 0c1.9 8.84 5.52 31.82-7.42 53.07-15.48 25.43-58.22 35.18-62.7 31.9Z"/></g></svg>