<svg width="61" height="61" viewBox="0 0 61 61" fill="none" xmlns="http://www.w3.org/2000/svg">
<circle cx="30.5" cy="30.5" r="30.5" fill="#789845"/>
<path d="M32.0607 12.9393C31.4749 12.3536 30.5251 12.3536 29.9393 12.9393L20.3934 22.4853C19.8076 23.0711 19.8076 24.0208 20.3934 24.6066C20.9792 25.1924 21.9289 25.1924 22.5147 24.6066L31 16.1213L39.4853 24.6066C40.0711 25.1924 41.0208 25.1924 41.6066 24.6066C42.1924 24.0208 42.1924 23.0711 41.6066 22.4853L32.0607 12.9393ZM32.5 36L32.5 14H29.5L29.5 36H32.5Z" fill="white"/>
<path d="M22.9334 49C22.4614 49 22.2254 48.764 22.2254 48.292V41.884H20.4014C19.9294 41.884 19.6934 41.672 19.6934 41.248C19.6934 40.816 19.9294 40.6 20.4014 40.6H25.4294C25.9094 40.6 26.1494 40.816 26.1494 41.248C26.1494 41.672 25.9094 41.884 25.4294 41.884H23.6294V48.292C23.6294 48.764 23.3974 49 22.9334 49ZM30.7215 49.192C29.9615 49.192 29.2815 49.012 28.6815 48.652C28.0895 48.292 27.6255 47.784 27.2895 47.128C26.9535 46.464 26.7855 45.688 26.7855 44.8C26.7855 43.904 26.9535 43.128 27.2895 42.472C27.6255 41.808 28.0895 41.296 28.6815 40.936C29.2815 40.568 29.9615 40.384 30.7215 40.384C31.4815 40.384 32.1535 40.568 32.7375 40.936C33.3295 41.296 33.7935 41.808 34.1295 42.472C34.4735 43.128 34.6455 43.904 34.6455 44.8C34.6455 45.688 34.4735 46.464 34.1295 47.128C33.7935 47.784 33.3295 48.292 32.7375 48.652C32.1535 49.012 31.4815 49.192 30.7215 49.192ZM30.7215 47.848C31.2255 47.848 31.6615 47.724 32.0295 47.476C32.3975 47.22 32.6815 46.864 32.8815 46.408C33.0895 45.944 33.1935 45.408 33.1935 44.8C33.1935 44.184 33.0895 43.648 32.8815 43.192C32.6815 42.728 32.3975 42.372 32.0295 42.124C31.6615 41.868 31.2255 41.74 30.7215 41.74C30.2255 41.74 29.7895 41.868 29.4135 42.124C29.0375 42.372 28.7455 42.728 28.5375 43.192C28.3375 43.648 28.2375 44.184 28.2375 44.8C28.2375 45.408 28.3375 45.944 28.5375 46.408C28.7455 46.864 29.0375 47.22 29.4135 47.476C29.7895 47.724 30.2255 47.848 30.7215 47.848ZM36.6083 49C36.1523 49 35.9243 48.764 35.9243 48.292V41.308C35.9243 40.836 36.1603 40.6 36.6323 40.6H39.7643C40.5483 40.6 41.1683 40.784 41.6243 41.152C42.0883 41.52 42.3203 42.14 42.3203 43.012C42.3203 43.884 42.0883 44.508 41.6243 44.884C41.1683 45.26 40.5483 45.448 39.7643 45.448H37.3043V48.292C37.3043 48.764 37.0723 49 36.6083 49ZM37.3043 44.152H39.5723C39.9803 44.152 40.2963 44.064 40.5203 43.888C40.7443 43.712 40.8563 43.42 40.8563 43.012C40.8563 42.612 40.7443 42.324 40.5203 42.148C40.2963 41.972 39.9803 41.884 39.5723 41.884H37.3043V44.152Z" fill="white"/>
</svg>
