<svg id="_レイヤー_2" data-name="レイヤー 2" xmlns="http://www.w3.org/2000/svg" viewBox="0 0 305.47 235.01"><defs><style>.cls-2,.cls-3{stroke-width:0}.cls-2{fill:#bfcea7}.cls-3{fill:#ff9}</style></defs><g id="logo"><path d="M304.01 20.46c4.62 5.07.62 117.97-47.17 165.79-62.23 62.27-151 48.31-167.54 45.39-2.01-26.56-3.72-94.98 37.81-150.09C176.79 15.6 293.28 8.7 304.01 20.46Z" style="stroke-width:0;fill:#789845"/><path class="cls-3" d="M247.47 66.77c-.41 3.74-49.83 38.4-82 77-5 6-69 88-76.17 87.87 10.15-19.98 45.5-66.41 69.17-92.87 34-38 89.36-75.25 89-72Z"/><path class="cls-3" d="M231.61 187.48c-1.83-3.34-32.95-16.39-54.72-17.88-9.89-.68-36.4-2.85-39.48 3.02 6.81 1.13 22.62 2.03 43.66 4.68 30.64 3.86 51.32 11.6 50.55 10.18ZM261.54 113.72c-1.2-1.12-11.63-6.72-34.79-8.22-16.91-1.09-23.29.1-29.05 3.53 7.87-.84 16.86 1.5 30.72 2.55 22.59 1.73 35.51 4.38 33.11 2.13ZM164.88 133.36c3.02-3.27 2.32-19.22 1.56-26.01-1.5-13.33-11.03-41.69-12.59-40.15-.11 1.65 3.97 18.69 5.31 28.61 3.87 28.5 4.66 38.69 5.71 37.55Z"/><path class="cls-2" d="M5.09 73.13c2.49-1.83 49.92 9.3 66.56 36.41 21.66 35.3 9.1 77.29 6.62 85.09-11.38-1.18-40.44-5.93-60.62-30.59C-6.5 134.54-.68 77.38 5.09 73.13ZM106.02.01C103.89-.58 75.12 18.99 71 41.37c-5.36 29.14 13.82 53.99 17.48 58.57 7.29-3.7 25.45-14.3 32.56-35.95C129.56 38.1 110.97 1.38 106.02.01Z"/></g></svg>