<svg id="_レイヤー_2" data-name="レイヤー 2" xmlns="http://www.w3.org/2000/svg" viewBox="0 0 892.7 214.98"><defs><style>.cls-1{fill:#fffbcf}.cls-1,.cls-2,.cls-3,.cls-5{stroke:gray;stroke-miterlimit:10}.cls-1,.cls-5{stroke-width:2px}.cls-2{stroke-width:4px}.cls-2,.cls-5{fill:#fff}.cls-3{stroke-width:3px;fill:none}.cls-6,.cls-7{fill:#666;stroke-width:0}.cls-7{fill:#bfcea7}</style></defs><g id="_レイヤー_9" data-name="レイヤー 9"><g id="_レイヤー_10" data-name="レイヤー 10"><path class="cls-3" d="M92.81 167.8c2.57 9.1 8.32 25.69 2 32-6.58 6.56-22.95-.04-25 0"/><path class="cls-5" d="M73.31 197.8c-1.33 3.33-8.41 7.5-12 7.5s-2.61-5.79-1-9c2-4 7-6 11-5 3.48.87 3 4 2 6.5Z"/><path class="cls-7" d="M74.37 201.41c-4.13 1.3-61.91-34.93-71.66-78.37C-9.99 66.48 25.66 16.56 32.47 7.35c14.54 6.72 50.87 26.16 66.44 67.96 18.63 50.02-14.96 123.08-24.54 126.1Z"/><path class="cls-3" d="M80.31 100.3c0 3.87-2.69 9-6 9s-4-3.13-4-7 2.69-7 6-7 4 1.13 4 5Z"/><ellipse class="cls-6" cx="81.81" cy="74.3" rx="4.5" ry="8"/><ellipse class="cls-6" cx="56.81" cy="82.3" rx="4.5" ry="8"/><path class="cls-3" d="M48.31 131.3c1.19 1.42 8.84 13.4 19 14.85 10.77 1.53 16.57-9.22 18-10.21M50.81 166.8c2.57 9.1 8.32 25.69 2 32-6.58 6.56-22.95-.04-25 0"/><path class="cls-5" d="M31.31 196.8c-1.33 3.33-8.41 7.5-12 7.5s-2.61-5.79-1-9c2-4 7-6 11-5 3.48.87 3 4 2 6.5Z"/></g><g id="_レイヤー_11" data-name="レイヤー 11"><g id="_レイヤー_12" data-name="レイヤー 12"><path d="M145.31 132.3c79.65-10.09 166-98 280-42s212.06 7.79 297 21" style="fill:none;stroke-width:4px;stroke:gray;stroke-miterlimit:10"/><path class="cls-2" d="M768.39 104.13c-.67-13.08 1-19.39 6.26-26.1L725.2 89.64c-4.35 4.01-3.76 30.52 1.73 34.03l50.89 6.24c-6.68-1.66-8.75-12.46-9.43-25.79Z"/><path class="cls-2" d="m779.47 130.09-1.66-.17c-4.67-1.62-8.75-12.46-9.43-25.79-.67-13.08 2.18-24.13 6.52-26.49l1.89-.46h.08c5.07.3 9.7 11.72 10.42 25.99.73 14.26-2.71 26.09-7.73 26.91-.03 0-.06.01-.09.01ZM133.12 144.73c-1.81-3.43 3.19-14.43 3.19-14.43s6-10 13-11"/><path class="cls-2" d="m133.72 146.3-43.81-14.86c-.29.04-.57.05-.84.03l-1.7-.56s-.04-.02-.06-.04c-3.81-2.71-1.86-13.87 4.52-25.36 6.37-11.49 14.82-19.05 19.13-17.24.03.01.05.02.08.03l1.21.95 36.69 29.64c2.57 5.41-9.87 26.39-15.22 27.41Z"/></g><path class="cls-5" d="M838.69 197.94c.9 3.48 7.39 8.51 10.95 8.96 3.56.46 3.32-5.41 2.13-8.8-1.48-4.22-6.18-6.84-10.28-6.36-3.56.42-3.48 3.59-2.81 6.19Z"/><path class="cls-7" d="M824.95 207.78c-4.23-.3-43.91-54.12-37.18-97.25 8.76-56.16 59.23-88.88 68.75-94.83 10.84 11.36 37 42.15 36.16 85.88-1 52.33-57.91 106.89-67.73 106.2Z"/><path class="cls-3" d="M828.81 199.8c-9 6-8.5 9.5-6 12 2 2 17 1 26-3"/><path class="cls-3" d="M818.71 199.91c-9.09 1.08-11.53 4.89-9.9 7.89 1.44 2.65 18 3 33-4"/><path class="cls-5" d="M847.54 206.7c1.5 3.48 8.5 7.49 11.91 7.28 3.41-.22 2.08-6.34.33-9.67-2.17-4.15-7.06-5.98-10.79-4.67-3.25 1.14-2.57 4.46-1.45 7.06Z"/><circle class="cls-5" cx="756.81" cy="131.8" r="6.5"/><circle class="cls-5" cx="769.81" cy="128.8" r="6.5"/><path class="cls-3" d="M810.81 129.8c-.37.67-7.15 12.39-21 13-13.77.61-15.55-8.34-16-9"/><path class="cls-3" d="M788.81 128.71c-3.07 3.5-3.95 12.54-12 14.1-10.56 2.04-12.67-3.03-16-6M826.16 113.97c3.42 5.13 15.66 7.46 24.02 2.21"/><ellipse class="cls-6" cx="849.81" cy="97.3" rx="4.5" ry="8"/><ellipse class="cls-6" cx="825.81" cy="95.3" rx="4.5" ry="8"/><path class="cls-1" d="m744.52 26.97 5.96-5.56c.91-.85 2.37-.72 3.11.28l14.21 17.25c.64.86.53 2.06-.25 2.79l-1.06.99c-.77.72-1.95.76-2.76.09l-19.11-12.67c-.98-.8-1.03-2.29-.1-3.16ZM757.8 9.14l6.63-3.54c1.26-.67 2.83-.13 3.4 1.19l10.32 24.83c.5 1.17.03 2.53-1.1 3.13l-.61.33c-1.11.59-2.48.25-3.18-.79l-16.33-21.62c-.81-1.2-.41-2.85.88-3.53ZM776.31 3.63l8.3-2.54c1.06-.33 2.17.34 2.38 1.43l2.54 23.85c.18.94-.37 1.87-1.29 2.15l-1.75.54c-.9.27-1.86-.16-2.25-1.01l-9.08-21.84c-.47-1.03.07-2.24 1.15-2.57Z"/></g><circle class="cls-5" cx="89.81" cy="131.8" r="6.5"/></g></svg>